/* XPM */
static char * bottom_left_inactive_xpm[] = {
"12 12 2 1",
" 	c None",
".	c #870000",
"....        ",
"....        ",
"....        ",
"....        ",
"....        ",
"....        ",
"....        ",
"....        ",
"............",
"............",
"............",
"............"};
