/* XPM */
static char * close_pressed_xpm[] = {
"18 24 3 1",
" 	c None",
".	c #000000",
"+	c #870000",
"                  ",
"                  ",
"                  ",
"                  ",
"..................",
"..................",
"..................",
"..................",
"..++++++++++++....",
"..++..++++..++....",
"..+++..++..+++....",
"..++++....++++....",
"..+++++..+++++....",
"..++++....++++....",
"..+++..++..+++....",
"..++..++++..++....",
"..++++++++++++....",
"..++++++++++++....",
"..................",
"..................",
"..................",
"..................",
"                  ",
"                  "};
