/* XPM */
static char * hide_pressed_xpm[] = {
"16 24 3 1",
" 	c None",
".	c #000000",
"+	c #870000",
"                ",
"                ",
"                ",
"                ",
"................",
"................",
"................",
"................",
"..++++++++++++..",
"..++++++++++++..",
"..++++++++++++..",
"..++++++++++++..",
"..++++++++++++..",
"..++++++++++++..",
"..++++++++++++..",
"..++......++++..",
"..++......++++..",
"..++++++++++++..",
"................",
"................",
"................",
"................",
"                ",
"                "};
