/* XPM */
static char * maximize_inactive_xpm[] = {
"16 24 4 1",
" 	c None",
".	c #870000",
"+	c #000000",
"@	c #A80000",
"                ",
"                ",
"                ",
"                ",
"...............+",
"@.@.@.@.@.@.@..+",
"@@@@@@@@@@@@@@++",
"@.............++",
"@.............++",
"@.............++",
"@.............++",
"@.............++",
"@.............++",
"@.............++",
"@.............++",
"@.............++",
"@.............++",
"@.............++",
"@+++++++++++++++",
"++++++++++++++++",
"++++++++++++++++",
"++++++++++++++++",
"                ",
"                "};
