/* XPM */
static char * maximize_toggled_inactive_xpm[] = {
"16 24 2 1",
" 	c None",
".	c #870000",
"                ",
"                ",
"                ",
"                ",
"................",
"................",
"................",
"................",
"................",
"................",
"................",
"................",
"................",
"................",
"................",
"................",
"................",
"................",
"................",
"................",
"................",
"................",
"                ",
"                "};
