/* XPM */
static char * menu_pressed_xpm[] = {
"16 17 2 1",
" 	c None",
".	c #870000",
"                ",
"................",
"................",
"................",
"................",
"................",
"................",
"................",
"................",
"................",
"................",
"................",
"................",
"................",
"................",
"................",
"................"};
