/* XPM */
static char * title_4_active_xpm[] = {
"2 24 2 1",
" 	c #000000",
".	c #A80000",
"  ",
"  ",
"..",
"..",
"..",
"..",
"..",
"..",
"..",
"..",
"..",
"..",
"..",
"..",
"..",
"..",
"..",
"..",
"..",
"..",
"..",
"..",
"..",
".."};
