/* XPM */
static char * title_5_active_xpm[] = {
"5 24 2 1",
" 	c #000000",
".	c #A80000",
"     ",
"     ",
".....",
".....",
".....",
".....",
".....",
".....",
".....",
".....",
".....",
".....",
".....",
".....",
".....",
".....",
".....",
".....",
".....",
".....",
".....",
".....",
".....",
"....."};
